<?xml version="1.0" encoding="UTF-8" standalone="no"?>
<svg width="88px" height="17px" viewBox="0 0 88 17" version="1.1" xmlns="http://www.w3.org/2000/svg" xmlns:xlink="http://www.w3.org/1999/xlink">
    <!-- Generator: Sketch 41.2 (35397) - http://www.bohemiancoding.com/sketch -->
    <title>NEWS MAP Copy</title>
    <desc>Created with Sketch.</desc>
    <defs></defs>
    <g id="Archive" stroke="none" stroke-width="1" fill="none" fill-rule="evenodd">
        <g id="iPhone-7" transform="translate(-101.000000, -17.000000)" fill="#FFFFFF">
            <path d="M101,33.2341509 L101,17.2722024 L103.223187,17.2722024 L107.854826,27.9316482 L107.854826,17.2722024 L109.977661,17.2722024 L109.977661,33.2341509 L107.684999,33.2341509 L103.122835,22.8251313 L103.122835,33.2341509 L101,33.2341509 Z M112.685057,33.2341509 L112.685057,17.2722024 L121.076044,17.2722024 L121.076044,19.9724502 L114.969999,19.9724502 L114.969999,23.5110813 L120.651477,23.5110813 L120.651477,26.200441 L114.969999,26.200441 L114.969999,30.5447912 L121.292187,30.5447912 L121.292187,33.2341509 L112.685057,33.2341509 Z M125.126616,33.2341509 L122.424826,17.2722024 L124.763804,17.2722024 L126.469791,28.2365149 L128.53859,17.2722024 L131.255819,17.2722024 L133.239704,28.4216125 L134.976569,17.2722024 L137.27695,17.2722024 L134.528844,33.2341509 L132.104952,33.2341509 L129.850888,21.3007979 L127.604543,33.2341509 L125.126616,33.2341509 Z M138.154849,28.0405292 L140.378035,27.7356625 C140.511839,28.7881837 140.783302,29.5612308 141.192432,30.0548269 C141.601562,30.5484231 142.153494,30.7952174 142.848243,30.7952174 C143.584163,30.7952174 144.138667,30.575643 144.511774,30.1364876 C144.88488,29.6973322 145.07143,29.1837822 145.07143,28.5958221 C145.07143,28.2183662 144.99295,27.8971706 144.835988,27.6322256 C144.679026,27.3672806 144.404991,27.1368182 144.013872,26.9408315 C143.746265,26.8101737 143.136439,26.5778966 142.184375,26.2439934 C140.959557,25.8157261 140.10014,25.2894734 139.606096,24.6652195 C138.911346,23.7869087 138.563977,22.7162566 138.563977,21.4532312 C138.563977,20.6402493 138.727369,19.8799049 139.054159,19.1721751 C139.380948,18.4644454 139.851827,17.92549 140.466809,17.5552929 C141.08179,17.1850958 141.824132,17 142.693855,17 C144.114232,17 145.183358,17.4391488 145.901265,18.3174596 C146.619173,19.1957704 146.996133,20.3680436 147.032157,21.8343146 L144.747215,21.9758598 C144.649436,21.1556191 144.439727,20.5658532 144.118084,20.2065442 C143.796441,19.8472353 143.313983,19.6675835 142.670697,19.6675835 C142.006825,19.6675835 141.487058,19.8599379 141.111378,20.2446526 C140.869503,20.4914506 140.748567,20.8217196 140.748567,21.2354693 C140.748567,21.6129252 140.861783,21.9359354 141.08822,22.2045098 C141.376412,22.5456719 142.076298,22.9013461 143.187897,23.2715432 C144.299496,23.6417403 145.121603,24.0246345 145.654245,24.4202373 C146.186886,24.8158401 146.603729,25.3566101 146.904787,26.0425636 C147.205845,26.7285171 147.356372,27.5759654 147.356372,28.584934 C147.356372,29.4995386 147.176255,30.3560602 146.816014,31.1545246 C146.455774,31.9529889 145.946299,32.5463842 145.287573,32.9347283 C144.628848,33.3230723 143.808027,33.5172414 142.825085,33.5172414 C141.394416,33.5172414 140.295699,33.0508726 139.528902,32.1181211 C138.762104,31.1853695 138.304091,29.8261858 138.154849,28.0405292 Z M154.222412,33.2341509 L154.222412,17.2722024 L157.642106,17.2722024 L159.695466,28.1602982 L161.725668,17.2722024 L165.153081,17.2722024 L165.153081,33.2341509 L163.030246,33.2341509 L163.030246,20.6692883 L160.783901,33.2341509 L158.583872,33.2341509 L156.345247,20.6692883 L156.345247,33.2341509 L154.222412,33.2341509 Z M177.918854,33.2341509 L175.433207,33.2341509 L174.445124,29.608415 L169.921557,29.608415 L168.987509,33.2341509 L166.563618,33.2341509 L170.971395,17.2722024 L173.387567,17.2722024 L177.918854,33.2341509 Z M173.711782,26.9190553 L172.152463,20.9959312 L170.624022,26.9190553 L173.711782,26.9190553 Z M179.422024,33.2341509 L179.422024,17.2722024 L183.088739,17.2722024 C184.478237,17.2722024 185.383971,17.3520476 185.805967,17.5117405 C186.4544,17.7512798 186.997325,18.2720885 187.43476,19.0741823 C187.872195,19.876276 188.090909,20.9124494 188.090909,22.1827336 C188.090909,23.1626671 187.964827,23.9865248 187.712659,24.6543314 C187.46049,25.3221379 187.140138,25.846576 186.751593,26.2276612 C186.363048,26.6087465 185.968076,26.8609848 185.566666,26.9843839 C185.021159,27.136818 184.231215,27.2130339 183.19681,27.2130339 L181.706966,27.2130339 L181.706966,33.2341509 L179.422024,33.2341509 Z M181.706966,19.9724502 L181.706966,24.501898 L182.957509,24.501898 C183.85811,24.501898 184.460217,24.4184235 184.763848,24.2514718 C185.067479,24.0845202 185.305492,23.8232085 185.477893,23.4675289 C185.650293,23.1118493 185.736492,22.6981058 185.736492,22.226286 C185.736492,21.6455847 185.615556,21.1665132 185.373681,20.7890574 C185.131805,20.4116015 184.825605,20.1756951 184.455072,20.0813311 C184.182319,20.0087435 183.634247,19.9724502 182.81084,19.9724502 L181.706966,19.9724502 Z" id="NEWS-MAP-Copy"></path>
        </g>
    </g>
</svg>