<?xml version="1.0" encoding="UTF-8" standalone="no"?>
<svg width="219px" height="35px" viewBox="0 0 219 35" version="1.1" xmlns="http://www.w3.org/2000/svg" xmlns:xlink="http://www.w3.org/1999/xlink">
    <!-- Generator: Sketch 41.2 (35397) - http://www.bohemiancoding.com/sketch -->
    <title>Big Story Copy 2</title>
    <desc>Created with Sketch.</desc>
    <defs></defs>
    <g id="Archive" stroke="none" stroke-width="1" fill="none" fill-rule="evenodd">
        <g id="USA-Button-inactive-Copy" transform="translate(-1109.000000, -104.000000)" fill="#FFFFFF">
            <path d="M1116.05873,137.891425 L1116.05873,110.205472 L1109.81641,110.205472 L1109.81641,104.568267 L1126.53434,104.568267 L1126.53434,110.205472 L1120.30637,110.205472 L1120.30637,137.891425 L1116.05873,137.891425 Z M1128.51617,137.891425 L1128.51617,104.568267 L1132.76382,104.568267 L1132.76382,117.683862 L1141.08691,117.683862 L1141.08691,104.568267 L1145.33456,104.568267 L1145.33456,137.891425 L1141.08691,137.891425 L1141.08691,123.321067 L1132.76382,123.321067 L1132.76382,137.891425 L1128.51617,137.891425 Z M1148.95231,137.891425 L1148.95231,104.568267 L1164.55093,104.568267 L1164.55093,110.205472 L1153.19996,110.205472 L1153.19996,117.592939 L1163.76168,117.592939 L1163.76168,123.207414 L1153.19996,123.207414 L1153.19996,132.27695 L1164.95274,132.27695 L1164.95274,137.891425 L1148.95231,137.891425 Z M1175.18742,104.568267 L1183.59662,104.568267 C1185.26124,104.568267 1186.50252,104.67813 1187.32048,104.897861 C1188.13845,105.117592 1188.8703,105.575989 1189.51606,106.273067 C1190.16182,106.970144 1190.69994,107.898304 1191.13045,109.057573 C1191.56096,110.216843 1191.77621,111.516267 1191.77621,112.955883 C1191.77621,114.51673 1191.51073,115.948747 1190.97977,117.251979 C1190.44881,118.55521 1189.72892,119.532619 1188.82007,120.184235 C1190.10203,120.775235 1191.0874,121.782951 1191.77621,123.207414 C1192.46502,124.631876 1192.80942,126.306352 1192.80942,128.230891 C1192.80942,129.746276 1192.58699,131.219967 1192.14214,132.652006 C1191.69728,134.084045 1191.08979,135.228144 1190.31967,136.084337 C1189.54954,136.940529 1188.60004,137.467118 1187.47116,137.664118 C1186.76321,137.785349 1185.05556,137.861117 1182.34815,137.891425 L1175.18742,137.891425 L1175.18742,104.568267 Z M1179.43507,110.114549 L1179.43507,117.820246 L1182.219,117.820246 C1183.87406,117.820246 1184.90248,117.782361 1185.30428,117.706592 C1186.03136,117.570208 1186.60297,117.172425 1187.01913,116.513232 C1187.43529,115.85404 1187.64336,114.986494 1187.64336,113.910571 C1187.64336,112.880109 1187.46399,112.042871 1187.10523,111.398832 C1186.74647,110.754793 1186.21313,110.364587 1185.50519,110.228203 C1185.08425,110.152433 1183.87406,110.114549 1181.8746,110.114549 L1179.43507,110.114549 Z M1179.43507,123.366528 L1179.43507,132.27695 L1183.36701,132.27695 C1184.8977,132.27695 1185.86872,132.208758 1186.2801,132.072374 C1186.91151,131.890528 1187.42571,131.447284 1187.82274,130.74263 C1188.21976,130.037976 1188.41827,129.094662 1188.41827,127.912662 C1188.41827,126.912507 1188.2652,126.063904 1187.95906,125.366827 C1187.65293,124.66975 1187.21047,124.162103 1186.63167,123.843872 C1186.05288,123.525641 1184.79726,123.366528 1182.86476,123.366528 L1179.43507,123.366528 Z M1195.49441,137.891425 L1195.49441,104.568267 L1199.74206,104.568267 L1199.74206,137.891425 L1195.49441,137.891425 Z M1212.80221,125.639595 L1212.80221,120.02512 L1221.95761,120.02512 L1221.95761,133.29983 C1221.0679,134.663677 1219.77879,135.864602 1218.09024,136.902641 C1216.4017,137.94068 1214.69166,138.459691 1212.96006,138.459691 C1210.75969,138.459691 1208.84157,137.728529 1207.20565,136.266182 C1205.56972,134.803835 1204.3404,132.712634 1203.51766,129.992518 C1202.69491,127.272401 1202.28354,124.313655 1202.28354,121.116192 C1202.28354,117.64596 1202.74274,114.562197 1203.66116,111.864811 C1204.57957,109.167425 1205.92369,107.098955 1207.69355,105.659339 C1209.04248,104.553107 1210.72143,104 1212.73046,104 C1215.3422,104 1217.3823,104.867545 1218.8508,106.602661 C1220.31931,108.337778 1221.26402,110.735839 1221.68496,113.796917 L1217.46601,115.047104 C1217.16944,113.410488 1216.61218,112.118641 1215.79422,111.171525 C1214.97626,110.22441 1213.95501,109.750859 1212.73046,109.750859 C1210.8745,109.750859 1209.39884,110.682807 1208.30344,112.546731 C1207.20803,114.410655 1206.66034,117.176192 1206.66034,120.843424 C1206.66034,124.79858 1207.21521,127.764902 1208.32496,129.74248 C1209.43471,131.720058 1210.88885,132.708832 1212.68741,132.708832 C1213.57712,132.708832 1214.46922,132.432279 1215.36371,131.879163 C1216.25821,131.326047 1217.02594,130.655499 1217.66691,129.867499 L1217.66691,125.639595 L1212.80221,125.639595 Z M1231.41739,127.048896 L1235.55023,126.412438 C1235.79897,128.609746 1236.30361,130.223608 1237.06418,131.25407 C1237.82474,132.284532 1238.85076,132.799755 1240.14228,132.799755 C1241.51034,132.799755 1242.54115,132.341358 1243.23474,131.42455 C1243.92834,130.507742 1244.27513,129.435623 1244.27513,128.20816 C1244.27513,127.42016 1244.12924,126.749612 1243.83745,126.196496 C1243.54566,125.643381 1243.03624,125.162253 1242.30916,124.753099 C1241.81168,124.48033 1240.67803,123.995414 1238.90817,123.298336 C1236.63127,122.404259 1235.03363,121.305621 1234.11522,120.00239 C1232.8237,118.168773 1232.17795,115.933613 1232.17795,113.296843 C1232.17795,111.599611 1232.48169,110.012269 1233.08918,108.534768 C1233.69667,107.057267 1234.57203,105.932111 1235.71526,105.159264 C1236.8585,104.386417 1238.23849,104 1239.85528,104 C1242.49572,104 1244.4832,104.916794 1245.81777,106.750411 C1247.15234,108.584027 1247.8531,111.031338 1247.92007,114.092416 L1243.67242,114.387915 C1243.49065,112.675529 1243.10081,111.444297 1242.50289,110.694181 C1241.90496,109.944066 1241.00808,109.569013 1239.81223,109.569013 C1238.57811,109.569013 1237.61188,109.970585 1236.9135,110.773739 C1236.46386,111.28897 1236.23904,111.97846 1236.23904,112.842229 C1236.23904,113.63023 1236.44951,114.304566 1236.87045,114.865259 C1237.40619,115.57749 1238.70726,116.320018 1240.77369,117.092864 C1242.84012,117.865711 1244.3684,118.665065 1245.35857,119.49095 C1246.34873,120.316835 1247.12363,121.44578 1247.68329,122.877819 C1248.24295,124.309858 1248.52278,126.079044 1248.52278,128.18543 C1248.52278,130.094815 1248.18794,131.882943 1247.51827,133.549867 C1246.84859,135.216791 1245.90149,136.4556 1244.67693,137.266331 C1243.45238,138.077062 1241.9265,138.482422 1240.09923,138.482422 C1237.43966,138.482422 1235.39717,137.508801 1233.97172,135.561531 C1232.54626,133.614261 1231.69483,130.776744 1231.41739,127.048896 Z M1256.05812,137.891425 L1256.05812,110.205472 L1249.8158,110.205472 L1249.8158,104.568267 L1266.53374,104.568267 L1266.53374,110.205472 L1260.30577,110.205472 L1260.30577,137.891425 L1256.05812,137.891425 Z M1267.10925,121.434422 C1267.10925,118.039958 1267.42974,115.191077 1268.07071,112.887691 C1268.54906,111.190459 1269.20198,109.66752 1270.02951,108.318827 C1270.85704,106.970134 1271.76348,105.969994 1272.74887,105.318379 C1274.05952,104.439455 1275.57106,104 1277.28352,104 C1280.38317,104 1282.86333,105.522939 1284.72407,108.568864 C1286.58482,111.614789 1287.51518,115.850227 1287.51518,121.275307 C1287.51518,126.654925 1286.592,130.863845 1284.7456,133.902192 C1282.8992,136.94054 1280.431,138.459691 1277.34092,138.459691 C1274.21257,138.459691 1271.72523,136.948117 1269.87883,133.924923 C1268.03244,130.901729 1267.10925,126.73827 1267.10925,121.434422 Z M1271.48605,121.207115 C1271.48605,124.980425 1272.03614,127.840672 1273.13632,129.787942 C1274.23651,131.735212 1275.63324,132.708832 1277.32657,132.708832 C1279.01989,132.708832 1280.40945,131.742789 1281.49529,129.810672 C1282.58112,127.878556 1283.12403,124.980425 1283.12403,121.116192 C1283.12403,117.297421 1282.59547,114.448539 1281.53834,112.569461 C1280.48121,110.690384 1279.0773,109.750859 1277.32657,109.750859 C1275.57584,109.750859 1274.16475,110.701749 1273.09327,112.603557 C1272.02179,114.505366 1271.48605,117.37319 1271.48605,121.207115 Z M1290.07102,137.891425 L1290.07102,104.568267 L1299.01117,104.568267 C1301.25937,104.568267 1302.89288,104.867551 1303.91175,105.466128 C1304.93061,106.064705 1305.74617,107.129248 1306.35845,108.659787 C1306.97073,110.190326 1307.27686,111.94057 1307.27686,113.910571 C1307.27686,116.410957 1306.81288,118.475638 1305.88489,120.104678 C1304.95691,121.733717 1303.56974,122.760375 1301.72335,123.184683 C1302.64176,124.033299 1303.39992,124.965247 1303.99785,125.980555 C1304.59577,126.995863 1305.40177,128.799145 1306.41585,131.390454 L1308.98453,137.891425 L1303.90457,137.891425 L1300.83364,130.640342 C1299.74302,128.049033 1298.99682,126.41623 1298.59501,125.741883 C1298.19321,125.067537 1297.76749,124.605351 1297.31785,124.355312 C1296.86821,124.105274 1296.15549,123.980256 1295.17968,123.980256 L1294.31867,123.980256 L1294.31867,137.891425 L1290.07102,137.891425 Z M1294.31867,118.66128 L1297.46135,118.66128 C1299.49908,118.66128 1300.77145,118.524898 1301.27849,118.252128 C1301.78553,117.979359 1302.18255,117.509596 1302.46956,116.842827 C1302.75656,116.176057 1302.90006,115.342608 1302.90006,114.342453 C1302.90006,113.221068 1302.71112,112.315639 1302.33323,111.626139 C1301.95534,110.936638 1301.422,110.500972 1300.73319,110.319125 C1300.38878,110.243356 1299.35558,110.205472 1297.63355,110.205472 L1294.31867,110.205472 L1294.31867,118.66128 Z M1316.03197,137.891425 L1316.03197,123.866603 L1308.32593,104.568267 L1313.30544,104.568267 L1318.25624,117.752054 L1323.1066,104.568267 L1328,104.568267 L1320.26526,123.912064 L1320.26526,137.891425 L1316.03197,137.891425 Z" id="Big-Story-Copy-2"></path>
        </g>
    </g>
</svg>