<?xml version="1.0" encoding="UTF-8" standalone="no"?>
<svg width="82px" height="56px" viewBox="0 0 82 56" version="1.1" xmlns="http://www.w3.org/2000/svg" xmlns:xlink="http://www.w3.org/1999/xlink">
    <!-- Generator: Sketch 41.2 (35397) - http://www.bohemiancoding.com/sketch -->
    <title>USA Square</title>
    <desc>Created with Sketch.</desc>
    <defs>
        <rect id="path-1" x="0" y="0" width="82" height="56"></rect>
        <mask id="mask-2" maskContentUnits="userSpaceOnUse" maskUnits="objectBoundingBox" x="0" y="0" width="82" height="56" fill="white">
            <use xlink:href="#path-1"></use>
        </mask>
    </defs>
    <g id="Archive" stroke="none" stroke-width="1" fill="none" fill-rule="evenodd">
        <g id="USA-Button-inactive" transform="translate(-25.000000, -31.000000)">
            <g id="USA-Square" transform="translate(25.000000, 31.000000)">
                <use id="Rectangle-2-Copy-3" stroke="#FFFFFF" mask="url(#mask-2)" stroke-width="3" xlink:href="#path-1"></use>
                <path d="M69.3037631,15.3028541 C69.2261196,15.2469245 69.1984837,15.0916374 69.153082,14.9771461 C68.1496379,12.3168678 66.5908452,12.9801279 66.5566294,14.6757838 C66.4651679,19.0922537 64.8932153,15.2179726 61.6742983,19.3153143 C61.6302126,19.37256 61.565729,19.4159877 61.5821789,19.4909993 C61.6861423,19.5258731 61.6157367,19.4863933 61.7512839,19.4798134 C61.7572059,19.4982372 61.8012916,19.6304945 61.8026076,19.6436544 C61.8124775,19.7502497 61.7572059,19.70419 61.7137781,19.7995995 C62.6494486,20.5161572 60.3747561,20.7523778 59.875337,20.8675271 C59.5805548,20.9353007 59.4101338,20.9267468 59.1765452,21.0892718 C58.8857109,22.9231069 55.8687988,22.9310029 55.7319356,21.7722718 C55.7273296,21.6808103 54.2192026,18.9790783 53.5842363,18.7922074 C53.0867913,18.6454743 52.3840515,18.4750533 52.461695,19.204771 C52.5195986,19.7377478 51.8306767,19.9726524 51.443775,20.8609472 C48.2788138,23.5679431 50.7397192,18.9968442 51.0877991,18.6665302 C51.3858714,18.4671574 50.9226421,17.7644175 50.5561383,17.5630707 C47.7589969,16.0246758 47.1904883,16.8820448 45.6849932,16.006252 C44.6091696,15.3791817 43.0668267,14.309938 41.7521505,14.314544 C34.4608958,14.3981095 27.0183019,12.7748331 19.9981415,11.1370808 L18.0504731,10.6330558 C17.894528,10.5889701 17.561582,10.4757948 17.4043209,10.4619768 C17.4780165,10.9785038 17.2667997,11.3785654 17.4990724,11.8312667 C17.5405261,11.9128582 17.5793479,12.0201116 17.4885444,12.0720933 C16.3291553,12.0240596 16.1508384,10.5336984 15.2533317,10.4685568 L15.2303018,10.5086946 C15.2145099,10.5527803 15.2217479,10.5086946 15.2112199,10.5731782 C14.1623742,16.9011266 15.9942353,13.2499063 12.2943232,17.7821834 C11.7817443,18.4092537 11.0191268,24.6167889 11.9107115,24.9220991 C11.9442693,24.8595894 11.9363734,24.8108977 12.0133589,24.7977378 C12.0903444,24.7839199 12.1120583,24.8233997 12.1278502,24.8898573 C12.3456469,25.8024978 13.3201392,29.4392423 13.2405216,29.656381 C12.9411334,30.4729541 16.4304867,34.1860261 18.1478565,34.3182833 C20.4488689,35.5079403 22.7340893,37.1154247 25.2963261,37.5391742 C25.5568926,37.583918 26.7018058,37.7938187 26.7458915,37.7681569 C26.8057692,37.6938033 26.8610408,37.3049276 26.8807807,37.1799084 L28.9455725,37.4733746 C29.0015021,36.741025 29.0436139,37.8458004 29.2554886,37.9964815 C29.4864453,38.1590066 30.6399124,39.433545 30.6886041,39.7006914 C30.8906089,40.7936229 32.3572822,42.8347268 32.8718352,41.462147 C32.9665866,41.2088185 32.8672292,41.1509148 33.1113458,40.9916798 C35.8637434,39.1960084 37.1192,46.7524356 38.4003184,46.2865744 C39.7650023,45.7911033 39.6965707,44.7909492 39.3511228,43.7730293 C37.4238522,40.5422684 54.3758056,40.2363002 56.2241167,40.284334 C56.2306966,40.284334 57.5730087,41.5121547 57.6361763,41.6134861 C58.0493978,42.2681922 57.515763,43.1104272 58.5994826,45.1212633 C58.6001406,45.1245532 58.9673024,46.35369 59.9542966,46.518847 C60.5741289,46.6221524 60.8807551,46.2957863 61.0380161,45.835189 C61.6927222,43.9138404 57.7401397,37.7253871 62.1914833,33.8866379 C64.6694966,32.6384193 64.2299552,25.4590239 64.2464051,25.4675778 C64.3720823,25.5254815 64.2990448,25.5465374 64.4181421,25.5169275 C65.4636979,25.262941 65.5051516,20.8471292 68.14569,20.9826764 L67.6732488,19.535743 C67.3501727,18.9336766 69.832792,15.8779427 70.5,16.163513 C69.9242534,15.7825333 70.4197245,15.9365044 69.3037631,15.3028541 Z" id="USA-Fill" fill="#FFFFFF"></path>
            </g>
        </g>
    </g>
</svg>