<?xml version="1.0" encoding="UTF-8" standalone="no"?>
<svg width="84px" height="58px" viewBox="0 0 84 58" version="1.1" xmlns="http://www.w3.org/2000/svg" xmlns:xlink="http://www.w3.org/1999/xlink">
    <!-- Generator: Sketch 41.2 (35397) - http://www.bohemiancoding.com/sketch -->
    <title>USA Brackets</title>
    <desc>Created with Sketch.</desc>
    <defs></defs>
    <g id="Archive" stroke="none" stroke-width="1" fill="none" fill-rule="evenodd">
        <g id="USA-Button-inactive" transform="translate(-24.000000, -30.000000)">
            <g id="USA-Brackets" transform="translate(25.200001, 31.700001)">
                <path d="M69.1037623,14.6028534 C69.0261188,14.5469237 68.998483,14.3916366 68.9530812,14.2771453 C67.9496372,11.6168671 66.3908444,12.2801271 66.3566286,13.9757831 C66.2651672,18.3922529 64.6932145,14.5179719 61.4742976,18.6153136 C61.4302118,18.6725592 61.3657282,18.715987 61.3821781,18.7909985 C61.4861415,18.8258723 61.4157359,18.7863925 61.5512831,18.7798126 C61.5572051,18.7982365 61.6012908,18.9304937 61.6026068,18.9436536 C61.6124768,19.050249 61.5572051,19.0041893 61.5137774,19.0995987 C62.4494478,19.8161564 60.1747553,20.052377 59.6753363,20.1675264 C59.380554,20.2353 59.210133,20.226746 58.9765444,20.389271 C58.6857101,22.2231062 55.668798,22.2310021 55.5319348,21.072271 C55.5273289,20.9808095 54.0192018,18.2790776 53.3842356,18.0922067 C52.8867905,17.9454735 52.1840507,17.7750525 52.2616942,18.5047702 C52.3195979,19.0377471 51.630676,19.2726517 51.2437743,20.1609464 C48.078813,22.8679423 50.5397184,18.2968435 50.8877984,17.9665294 C51.1858706,17.7671566 50.7226414,17.0644168 50.3561375,16.86307 C47.5589961,15.3246751 46.9904875,16.182044 45.4849924,15.3062512 C44.4091688,14.6791809 42.866826,13.6099373 41.5521498,13.6145432 C34.260895,13.6981087 26.8183011,12.0748324 19.7981408,10.4370801 L17.8504723,9.93305506 C17.6945273,9.88896932 17.3615812,9.77579399 17.2043202,9.76197608 C17.2780157,10.278503 17.066799,10.6785646 17.2990716,11.131266 C17.3405254,11.2128575 17.3793471,11.3201108 17.2885437,11.3720925 C16.1291545,11.3240588 15.9508376,9.83369765 15.0533309,9.76855604 L15.0303011,9.8086938 C15.0145092,9.85277954 15.0217471,9.8086938 15.0112192,9.87317742 C13.9623734,16.2011259 15.7942345,12.5499055 12.0943225,17.0821827 C11.5817435,17.7092529 10.819126,23.9167881 11.7107108,24.2220983 C11.7442686,24.1595887 11.7363726,24.110897 11.8133581,24.097737 C11.8903437,24.0839191 11.9120576,24.1233989 11.9278495,24.1898565 C12.1456462,25.1024971 13.1201384,28.7392415 13.0405209,28.9563802 C12.7411326,29.7729534 16.2304859,33.4860254 17.9478558,33.6182826 C20.2488681,34.8079395 22.5340886,36.415424 25.0963254,36.8391735 C25.3568918,36.8839172 26.501805,37.093818 26.5458908,37.0681561 C26.6057684,36.9938026 26.6610401,36.6049269 26.68078,36.4799076 L28.7455717,36.7733739 C28.8015014,36.0410242 28.8436131,37.1457997 29.0554879,37.2964808 C29.2864445,37.4590058 30.4399117,38.7335442 30.4886034,39.0006907 C30.6906082,40.0936222 32.1572815,42.1347261 32.6718344,40.7621462 C32.7665859,40.5088177 32.6672285,40.450914 32.911345,40.291679 C35.6637427,38.4960076 36.9191992,46.0524348 38.2003176,45.5865736 C39.5650015,45.0911025 39.4965699,44.0909485 39.151122,43.0730285 C37.2238514,39.8422677 54.1758049,39.5362995 56.0241159,39.5843332 C56.0306959,39.5843332 57.3730079,40.8121539 57.4361755,40.9134853 C57.8493971,41.5681914 57.3157623,42.4104264 58.3994818,44.4212625 C58.4001398,44.4245525 58.7673016,45.6536892 59.7542958,45.8188462 C60.3741281,45.9221516 60.6807543,45.5957855 60.8380154,45.1351883 C61.4927215,43.2138397 57.5401389,37.0253864 61.9914825,33.1866371 C64.4694958,31.9384185 64.0299544,24.7590231 64.0464043,24.7675771 C64.1720816,24.8254807 64.099044,24.8465366 64.2181413,24.8169268 C65.2636971,24.5629403 65.3051509,20.1471285 67.9456892,20.2826757 L67.473248,18.8357423 C67.1501719,18.2336758 69.6327912,15.177942 70.2999992,15.4635123 C69.7242527,15.0825325 70.2197237,15.2365036 69.1037623,14.6028534 Z" id="USA-Fill-Copy" fill="#EDEDED"></path>
                <polyline id="Line" stroke="#EDEDED" stroke-width="1.5" stroke-linecap="square" points="76.1000023 0 81.102214 0.00752302039 81.0649344 5.08616098"></polyline>
                <polyline id="Line-Copy-2" stroke="#EDEDED" stroke-width="1.5" stroke-linecap="square" transform="translate(78.643083, 52.101108) rotate(90.000000) translate(-78.643083, -52.101108) " points="76.1419769 49.5580276 81.1441886 49.5655507 81.1069091 54.6441886"></polyline>
                <polyline id="Line-Copy-3" stroke="#EDEDED" stroke-width="1.5" stroke-linecap="square" transform="translate(3.001106, 52.100002) rotate(180.000000) translate(-3.001106, -52.100002) " points="0.5 49.6000023 5.50221169 49.6073979 5.46493213 54.6000023"></polyline>
                <polyline id="Line-Copy-4" stroke="#EDEDED" stroke-width="1.5" stroke-linecap="square" transform="translate(3.143079, 2.543080) rotate(-90.000000) translate(-3.143079, -2.543080) " points="0.64197312 0 5.64418481 0.00752302039 5.60690525 5.08616098"></polyline>
            </g>
        </g>
    </g>
</svg>