<?xml version="1.0" encoding="UTF-8" standalone="no"?>
<svg width="32px" height="21px" viewBox="0 0 32 21" version="1.1" xmlns="http://www.w3.org/2000/svg" xmlns:xlink="http://www.w3.org/1999/xlink">
    <!-- Generator: Sketch 41.2 (35397) - http://www.bohemiancoding.com/sketch -->
    <title>USA Outline</title>
    <desc>Created with Sketch.</desc>
    <defs></defs>
    <g id="Current" stroke="none" stroke-width="1" fill="none" fill-rule="evenodd">
        <g id="USA-Button-inactive-Copy-6" transform="translate(-1327.000000, -15.000000)" stroke-width="0.5" stroke="#FFFFFF" fill="#FFFFFF">
            <g id="Ap-header">
                <path d="M1353.08653,34.9171239 C1351.61347,33.7304587 1351.46576,32.9214144 1351.36785,32.3863958 C1351.32441,32.1491296 1351.30235,32.0595699 1351.22582,31.9867192 C1350.9675,31.7410985 1350.39606,31.7277314 1349.6729,31.7106884 C1349.33037,31.7026681 1348.94172,31.6936453 1348.52901,31.6572199 C1348.45649,31.6508706 1348.38832,31.647863 1348.3265,31.647863 C1348.05782,31.647863 1347.96592,31.7073466 1347.95623,31.7233871 C1347.94253,31.7451087 1347.9579,31.8256455 1347.9726,31.8650785 C1347.99967,31.9165419 1348.01538,31.9760255 1348.01538,32.0391851 C1348.01538,32.2440361 1347.84996,32.4104566 1347.64544,32.4117933 C1346.82871,32.3132109 1346.24323,32.2670943 1345.8068,32.2670943 C1345.05189,32.2670943 1344.85105,32.3970895 1344.54661,32.593586 C1344.32906,32.7342748 1344.05771,32.9087156 1343.57917,33.0631057 C1343.25101,33.1687059 1343.03747,33.3321188 1342.92619,33.5630357 C1342.74673,33.935978 1342.88341,34.3881205 1342.91382,34.4780143 C1342.93421,34.5237967 1342.94523,34.5742575 1342.94523,34.627726 C1342.94523,34.8332453 1342.77848,35 1342.57229,35 C1341.24627,34.9401822 1340.8486,34.0502668 1340.46396,33.1897591 C1340.33564,32.903703 1340.20364,32.6076215 1340.03321,32.3158843 C1339.8962,32.0816257 1339.77823,31.9987496 1339.71841,31.9987496 C1339.58107,31.9987496 1339.34881,32.2701019 1339.24956,32.4579098 C1339.20211,32.5468011 1339.12057,32.6133025 1339.02332,32.6413734 C1338.92608,32.6691102 1338.82148,32.6567456 1338.73393,32.6059506 C1338.19055,32.2924918 1338.14644,32.2139601 1337.61276,31.2528648 L1337.52287,31.0911228 C1337.32136,30.7292083 1337.03797,30.5534308 1336.65567,30.5534308 C1336.38165,30.5534308 1336.15975,30.6466664 1336.15741,30.6476689 C1336.07922,30.6824234 1335.99133,30.689107 1335.90879,30.6667171 C1332.45874,29.7336928 1329.90194,27.9692342 1328.7096,25.6984964 C1327.947,24.2471624 1327.79328,22.6942384 1328.2765,21.3254463 C1329.25464,18.5531077 1329.43643,16.4959094 1329.4381,16.4755246 C1329.4488,16.3492054 1329.52298,16.2369217 1329.63493,16.177438 C1329.74722,16.1179544 1329.88189,16.1199595 1329.99217,16.1817823 L1330.44598,16.4370941 C1330.43161,16.2813673 1330.48441,16.1583899 1330.58333,16.0801923 C1330.68225,16.0023289 1330.81391,15.9792706 1330.93321,16.019372 C1335.70026,17.6224226 1341.51829,17.7470709 1343.18785,17.7470709 C1343.46922,17.7470709 1343.62696,17.7437292 1343.62863,17.7437292 C1343.70248,17.7420583 1343.77533,17.7621089 1343.83782,17.8018761 C1344.24853,18.0635373 1345.53277,18.2543528 1346.24658,18.3135022 C1346.35752,18.322525 1346.45911,18.3810061 1346.52261,18.472905 C1346.70841,18.7415839 1348.27036,19.3624862 1348.32917,19.5583144 C1348.41272,19.834011 1348.37529,20.2286749 1348.28473,20.8074708 C1348.29642,20.7767265 1348.30845,20.7466505 1348.32149,20.7169086 C1348.55307,20.1869027 1348.99251,19.9065276 1349.59236,19.9065276 C1349.93089,19.9065276 1350.22396,20.0405329 1350.43917,20.294508 C1350.89766,20.8338708 1350.91404,21.8387434 1350.86926,22.4746836 C1351.68966,22.1261362 1351.87212,21.2843425 1351.8748,21.2743171 C1351.90788,21.1115726 1352.04523,20.9906002 1352.21065,20.9775673 C1353.19714,20.9010406 1353.41669,19.9021833 1353.42572,19.8597427 C1353.45613,19.7130387 1353.57209,19.5964106 1353.71979,19.5680055 C1354.92116,19.3334127 1355.65869,18.783022 1355.65869,18.491619 C1355.65869,17.2163967 1356.32772,16.8765379 1356.72338,16.8765379 C1356.92021,16.8765379 1357.10067,16.9503912 1357.231,17.0843965 C1357.35665,17.2133891 1357.42248,17.3871615 1357.41714,17.5732985 C1357.39842,18.1998818 1357.62633,18.4508493 1357.79275,18.6339787 C1357.90671,18.7596295 1358.04907,18.9160247 1358.03002,19.1476099 C1358.01832,19.2986582 1357.93812,19.4346686 1357.79141,19.551965 C1356.61344,20.4936779 1357.05555,21.3027222 1357.11704,21.4033097 C1357.18789,21.5055681 1357.20025,21.6322215 1357.15481,21.747847 C1357.10902,21.8641409 1357.00576,21.9456802 1356.88345,21.9717461 C1356.32838,22.0913817 1355.7399,22.5756053 1355.38366,23.2051962 C1355.05951,23.7779769 1354.97095,24.3925297 1355.14138,24.8904546 C1355.59252,26.2097884 1355.06085,27.5886058 1353.60383,28.8781977 C1352.613,29.7554143 1352.28416,30.2810759 1353.29305,31.6351642 C1354.64279,33.4450709 1353.66131,34.795149 1353.61921,34.8519593 C1353.55838,34.9324961 1353.46782,34.9856304 1353.36724,34.9983291 C1353.2359,34.9996658 1353.15336,34.9712607 1353.08653,34.9171239 Z M1339.71774,31.2525307 C1340.08801,31.2525307 1340.41016,31.4837817 1340.67617,31.9399343 C1340.86698,32.2670943 1341.01402,32.5955911 1341.14368,32.8856574 C1341.45012,33.5707217 1341.65598,33.9854363 1342.09676,34.1605455 C1342.07637,33.8898615 1342.10077,33.5616989 1342.25014,33.2469035 C1342.45065,32.8241686 1342.82092,32.5237428 1343.34959,32.352978 C1343.7349,32.2289981 1343.94142,32.0956611 1344.14126,31.9666685 C1344.49615,31.7374226 1344.83167,31.5208754 1345.80579,31.5208754 C1346.17673,31.5208754 1346.64157,31.5512856 1347.21636,31.6134426 C1347.23207,31.5195387 1347.26515,31.422293 1347.32396,31.3277207 C1347.50041,31.0450063 1347.83793,30.9023124 1348.32616,30.9023124 C1348.41004,30.9023124 1348.50027,30.9066567 1348.59451,30.9150111 C1348.98316,30.9490973 1349.3424,30.9574517 1349.69028,30.965472 C1350.57451,30.986191 1351.27227,31.0025657 1351.73946,31.4466879 C1351.99878,31.6933111 1352.05124,31.9776964 1352.10137,32.2527247 C1352.17522,32.6567456 1351.29366,31.2064141 1352.21065,32.0391851 C1352.32393,31.6381718 1353.33215,32.9347815 1352.6952,32.0796206 C1352.0596,31.2271332 1351.82935,30.5310409 1351.97137,29.8897538 C1352.1007,29.3066136 1352.50272,28.856142 1353.10925,28.3194525 C1353.95539,27.570226 1354.8717,26.4092925 1354.43493,25.1310626 C1354.19232,24.4216032 1354.29859,23.6068778 1354.73402,22.8376007 C1355.11298,22.1682426 1355.69144,21.6375683 1356.30833,21.3762413 C1356.27091,21.2385601 1356.2435,21.0734763 1356.24283,20.8860026 C1356.24283,20.4311867 1356.41126,19.7584868 1357.19157,19.0804402 C1356.98471,18.8481866 1356.66958,18.4401556 1356.67025,17.6401341 C1356.56565,17.703962 1356.40424,17.9395573 1356.40424,18.4909506 C1356.40424,19.3370887 1355.24398,19.9770391 1354.08973,20.2500623 C1353.90961,20.7753897 1353.43708,21.501558 1352.53079,21.6843532 C1352.3119,22.2958985 1351.70203,23.1797987 1350.48863,23.3422091 C1350.37167,23.3572471 1350.25404,23.3168116 1350.17183,23.2325988 C1350.08929,23.1477176 1350.05219,23.0294187 1350.07124,22.9124565 C1350.17149,22.2952302 1350.20525,21.1693853 1349.87107,20.7763923 C1349.79621,20.6888377 1349.713,20.6514098 1349.59236,20.6514098 C1349.02526,20.6514098 1348.89894,21.0280281 1348.8271,22.090045 C1348.80638,22.3951493 1348.78699,22.6832105 1348.71916,22.9218135 C1348.58482,23.3930041 1348.29208,23.5193233 1348.06985,23.5427157 C1347.8513,23.5651056 1347.65179,23.4879106 1347.51712,23.328842 C1347.19998,22.9545629 1347.29255,22.234744 1347.48303,21.093527 C1347.56123,20.6246756 1347.66783,19.9860619 1347.61871,19.7845527 C1347.36674,19.7782033 1344.04769,18.7559536 1343.54141,18.4899481 C1343.46388,18.4909506 1343.34424,18.4919532 1343.18751,18.4919532 C1341.55138,18.4919532 1335.99868,18.3736542 1331.23598,16.8999303 L1331.25202,17.0750395 C1331.26438,17.2130549 1331.19955,17.3463918 1331.08326,17.421916 C1330.96663,17.4974402 1330.81859,17.5017845 1330.69795,17.4339464 L1330.11114,17.1037788 C1329.99284,17.9211775 1329.69108,19.5539701 1328.97894,21.5727379 C1328.5659,22.7436967 1328.70425,24.0857546 1329.36893,25.3512857 C1330.451,27.4114916 1332.7996,29.0295803 1335.98866,29.9151513 C1336.13068,29.8683664 1336.37162,29.8072119 1336.65501,29.8072119 C1337.30398,29.8072119 1337.84301,30.1343719 1338.17351,30.72854 L1338.26407,30.8906162 C1338.50936,31.332065 1338.64437,31.5753464 1338.74362,31.7003289 C1338.76768,31.7297365 1338.78873,31.7531289 1338.81413,31.7755189 C1339.00929,31.5335742 1339.32208,31.2525307 1339.71774,31.2525307 Z" id="USA-Outline"></path>
            </g>
        </g>
    </g>
</svg>